<svg width="31" height="31" viewBox="0 0 31 31" fill="none" xmlns="http://www.w3.org/2000/svg">
<path d="M21.0703 14.5312H16.4688V9.92969C16.4688 9.79648 16.3598 9.6875 16.2266 9.6875H14.7734C14.6402 9.6875 14.5312 9.79648 14.5312 9.92969V14.5312H9.92969C9.79648 14.5312 9.6875 14.6402 9.6875 14.7734V16.2266C9.6875 16.3598 9.79648 16.4688 9.92969 16.4688H14.5312V21.0703C14.5312 21.2035 14.6402 21.3125 14.7734 21.3125H16.2266C16.3598 21.3125 16.4688 21.2035 16.4688 21.0703V16.4688H21.0703C21.2035 16.4688 21.3125 16.3598 21.3125 16.2266V14.7734C21.3125 14.6402 21.2035 14.5312 21.0703 14.5312Z" fill="black"/>
<path d="M15.5 1.9375C8.01035 1.9375 1.9375 8.01035 1.9375 15.5C1.9375 22.9896 8.01035 29.0625 15.5 29.0625C22.9896 29.0625 29.0625 22.9896 29.0625 15.5C29.0625 8.01035 22.9896 1.9375 15.5 1.9375ZM15.5 26.7617C9.28184 26.7617 4.23828 21.7182 4.23828 15.5C4.23828 9.28184 9.28184 4.23828 15.5 4.23828C21.7182 4.23828 26.7617 9.28184 26.7617 15.5C26.7617 21.7182 21.7182 26.7617 15.5 26.7617Z" fill="black"/>
</svg>
