<svg width="1024" height="1024" viewBox="0 0 1024 1024" fill="none" xmlns="http://www.w3.org/2000/svg">
<path d="M512 64C630.817 64 744.768 111.2 828.784 195.216C912.8 279.232 960 393.183 960 512C960 630.817 912.8 744.768 828.784 828.784C744.768 912.8 630.817 960 512 960C393.183 960 279.232 912.8 195.216 828.784C111.2 744.768 64 630.817 64 512C64 393.183 111.2 279.232 195.216 195.216C279.232 111.2 393.183 64 512 64ZM512 457.664L407.936 353.6C400.731 346.395 390.958 342.347 380.768 342.347C370.578 342.347 360.805 346.395 353.6 353.6C346.395 360.805 342.347 370.578 342.347 380.768C342.347 390.958 346.395 400.731 353.6 407.936L457.664 512L353.6 616.064C350.032 619.632 347.202 623.867 345.271 628.529C343.34 633.19 342.347 638.186 342.347 643.232C342.347 648.278 343.34 653.274 345.271 657.935C347.202 662.597 350.032 666.832 353.6 670.4C357.168 673.968 361.403 676.798 366.065 678.729C370.726 680.66 375.722 681.653 380.768 681.653C385.814 681.653 390.81 680.66 395.471 678.729C400.133 676.798 404.368 673.968 407.936 670.4L512 566.336L616.064 670.4C619.632 673.968 623.867 676.798 628.529 678.729C633.19 680.66 638.186 681.653 643.232 681.653C648.278 681.653 653.274 680.66 657.935 678.729C662.597 676.798 666.832 673.968 670.4 670.4C673.968 666.832 676.798 662.597 678.729 657.935C680.66 653.274 681.653 648.278 681.653 643.232C681.653 638.186 680.66 633.19 678.729 628.529C676.798 623.867 673.968 619.632 670.4 616.064L566.336 512L670.4 407.936C673.968 404.368 676.798 400.133 678.729 395.471C680.66 390.81 681.653 385.814 681.653 380.768C681.653 375.722 680.66 370.726 678.729 366.065C676.798 361.403 673.968 357.168 670.4 353.6C666.832 350.032 662.597 347.202 657.935 345.271C653.274 343.34 648.278 342.347 643.232 342.347C638.186 342.347 633.19 343.34 628.529 345.271C623.867 347.202 619.632 350.032 616.064 353.6L512 457.664Z" fill="black"/>
</svg>
