<svg width="46" height="39" viewBox="0 0 46 39" fill="none" xmlns="http://www.w3.org/2000/svg">
<path fill-rule="evenodd" clip-rule="evenodd" d="M0 3.25C0 2.38805 0.346172 1.5614 0.962363 0.951904C1.57855 0.34241 2.41429 0 3.28571 0H42.7143C43.5857 0 44.4214 0.34241 45.0376 0.951904C45.6538 1.5614 46 2.38805 46 3.25C46 4.11195 45.6538 4.9386 45.0376 5.5481C44.4214 6.15759 43.5857 6.5 42.7143 6.5H3.28571C2.41429 6.5 1.57855 6.15759 0.962363 5.5481C0.346172 4.9386 0 4.11195 0 3.25ZM0 19.5C0 18.638 0.346172 17.8114 0.962363 17.2019C1.57855 16.5924 2.41429 16.25 3.28571 16.25H42.7143C43.5857 16.25 44.4214 16.5924 45.0376 17.2019C45.6538 17.8114 46 18.638 46 19.5C46 20.362 45.6538 21.1886 45.0376 21.7981C44.4214 22.4076 43.5857 22.75 42.7143 22.75H3.28571C2.41429 22.75 1.57855 22.4076 0.962363 21.7981C0.346172 21.1886 0 20.362 0 19.5ZM19.7143 35.75C19.7143 34.888 20.0605 34.0614 20.6767 33.4519C21.2928 32.8424 22.1286 32.5 23 32.5H42.7143C43.5857 32.5 44.4214 32.8424 45.0376 33.4519C45.6538 34.0614 46 34.888 46 35.75C46 36.612 45.6538 37.4386 45.0376 38.0481C44.4214 38.6576 43.5857 39 42.7143 39H23C22.1286 39 21.2928 38.6576 20.6767 38.0481C20.0605 37.4386 19.7143 36.612 19.7143 35.75Z" fill="white"/>
</svg>
