<svg width="584" height="691" viewBox="0 0 584 691" fill="none" xmlns="http://www.w3.org/2000/svg">
<g clip-path="url(#clip0_272_222)">
<path d="M254.685 655.593L252.828 663.727L253.275 664.214C253.176 664.462 253.076 664.711 252.957 664.96C251.971 667.19 250.843 669.356 249.581 671.442C247.913 674.216 246.046 676.891 244.11 679.516C243.048 680.968 241.955 682.409 240.863 683.841C240.833 683.89 240.8 683.936 240.764 683.98C240.776 683.929 240.792 683.879 240.813 683.831L240.456 683.752L238.4 674.823L237.775 676.235V676.245L236.762 678.581C236.841 679.009 236.921 679.426 237.02 679.844C237.01 679.834 237.01 679.814 237 679.804C236.99 679.794 236.99 679.794 236.99 679.784C236.861 679.506 236.722 679.238 236.593 678.959L235.044 682.519L231.906 681.803C230.258 680.948 228.61 680.083 226.971 679.188C204.59 667.028 183.867 651.507 169.916 630.378C164.37 621.961 160.179 612.724 157.494 603.006C152.202 583.696 153.115 562.916 162.747 545.665C162.747 545.664 162.747 545.662 162.747 545.661C162.748 545.66 162.749 545.659 162.75 545.658C162.751 545.657 162.752 545.656 162.753 545.656C162.754 545.655 162.755 545.655 162.757 545.655C162.995 545.218 163.243 544.78 163.501 544.343C163.69 544.84 163.869 545.337 164.067 545.834V545.844C166.656 552.596 169.781 559.129 173.411 565.382C173.689 565.869 173.967 566.356 174.265 566.833C183.134 581.74 194.689 594.868 208.344 605.551C208.381 605.587 208.421 605.62 208.463 605.65C208.51 605.69 208.56 605.727 208.612 605.76C211.65 608.146 214.791 610.39 218.035 612.491V612.501C220.567 614.151 223.168 615.713 225.81 617.194C231.44 620.336 237.566 623.359 242.829 627.127C247.943 630.776 252.252 635.121 254.546 640.938C254.725 641.405 254.893 641.872 255.042 642.34L250.951 654.977L254.685 655.593Z" fill="#F0F0F0"/>
<path d="M237.775 676.235V676.245L236.762 678.581C235.233 670.07 237.05 661.072 235.789 652.452C235.65 651.487 235.471 650.523 235.243 649.568C233.952 644.119 231.003 639.019 225.76 636.583C224.23 635.885 222.624 635.368 220.974 635.042C217.717 634.346 214.321 634.196 211.034 633.809C210.21 633.709 209.396 633.6 208.602 633.451C204.352 632.791 200.294 631.221 196.706 628.847C192.313 625.721 188.485 621.868 185.386 617.453C183.339 614.681 181.433 611.807 179.677 608.842C179.439 608.464 179.22 608.076 178.992 607.689C174.882 600.561 171.512 593.032 168.933 585.218C167.605 581.224 166.491 577.161 165.597 573.048C163.607 564.059 162.65 554.872 162.747 545.665C162.747 545.664 162.747 545.662 162.748 545.661C162.748 545.66 162.749 545.659 162.75 545.658C162.751 545.657 162.752 545.656 162.753 545.656C162.754 545.655 162.755 545.655 162.757 545.655C162.747 545.237 162.757 544.82 162.767 544.402C162.787 543.547 164.107 543.736 164.087 544.591C164.077 545.009 164.068 545.416 164.068 545.834V545.844C163.987 554.665 164.876 563.467 166.719 572.093C166.818 572.531 166.917 572.968 167.007 573.406C169.691 585.359 174.203 596.826 180.382 607.4C180.451 607.52 180.521 607.639 180.6 607.758C182.04 610.214 183.589 612.6 185.218 614.937C188.21 619.435 191.889 623.434 196.12 626.789C199.681 629.456 203.816 631.251 208.195 632.029C208.631 632.108 209.068 632.188 209.515 632.257C209.863 632.317 210.22 632.367 210.578 632.407C213.924 632.824 217.36 632.983 220.686 633.62C222.198 633.906 223.683 634.321 225.125 634.863C227.484 635.809 229.616 637.244 231.382 639.075C233.149 640.905 234.508 643.088 235.372 645.482C236.257 647.804 236.864 650.224 237.179 652.69C237.288 653.495 237.368 654.301 237.437 655.116V655.126C237.537 656.439 237.586 657.761 237.606 659.083C237.626 660.734 237.596 662.384 237.556 664.025C237.336 668.095 237.409 672.175 237.775 676.235V676.235Z" fill="white"/>
<path d="M180.242 608.564C176.458 610.488 172.114 611.003 167.987 610.017C163.859 609.03 160.215 606.607 157.707 603.179C157.202 602.484 158.257 601.665 158.763 602.361C161.093 605.558 164.487 607.815 168.333 608.725C172.178 609.636 176.223 609.14 179.735 607.327C180.499 606.934 181.001 608.173 180.242 608.564H180.242Z" fill="white"/>
<path d="M208.065 632.426C210.83 624.192 210.394 615.218 206.844 607.291C206.492 606.506 207.727 606 208.079 606.784C211.758 615.039 212.193 624.38 209.296 632.942C209.02 633.758 207.79 633.237 208.065 632.426H208.065Z" fill="white"/>
<path d="M166.333 572.216C167.952 571.777 169.437 570.942 170.654 569.787C171.871 568.631 172.782 567.191 173.306 565.595C173.572 564.776 174.802 565.297 174.537 566.111C173.95 567.871 172.942 569.46 171.6 570.74C170.258 572.02 168.624 572.951 166.84 573.453C166.675 573.514 166.494 573.511 166.332 573.443C166.171 573.375 166.041 573.248 165.969 573.088C165.903 572.924 165.904 572.741 165.972 572.577C166.04 572.414 166.17 572.284 166.333 572.216H166.333Z" fill="white"/>
<path d="M240.704 684.06C240.724 684.03 240.744 684.01 240.764 683.98C240.724 684.1 240.684 684.219 240.654 684.348L240.704 684.06Z" fill="#F0F0F0"/>
<path d="M270.225 622.852L268.835 627.724L260.295 626.123L257.465 634.863L256.979 636.364L255.042 642.34L250.951 654.977L254.685 655.593L252.828 663.727L253.275 664.214L253.414 664.363L254.337 665.377L259.958 671.522L244.587 684.696L242.124 684.129L240.863 683.841C240.833 683.89 240.8 683.936 240.764 683.98C240.776 683.929 240.792 683.879 240.813 683.831L240.456 683.752L238.4 674.823L237.775 676.235V676.245L236.762 678.581C236.841 679.009 236.921 679.426 237.02 679.844C237.01 679.834 237.01 679.814 237 679.804C236.99 679.794 236.99 679.794 236.99 679.784C236.861 679.506 236.722 679.238 236.593 678.959C234.627 674.853 232.75 670.687 231.013 666.471C226.73 656.318 223.37 645.799 220.974 635.042C220.875 634.574 220.765 634.107 220.686 633.63V633.62C219.229 626.664 218.343 619.601 218.035 612.501V612.491C217.876 608.604 217.916 604.711 218.154 600.828C218.782 590.792 220.984 580.917 224.678 571.566C224.698 571.516 224.717 571.477 224.737 571.427C231.817 553.589 244.279 538.118 261.219 529.876C261.924 529.518 262.648 529.18 263.373 528.862H263.393L263.403 528.852C263.86 528.653 264.307 528.464 264.763 528.265C264.615 528.782 264.456 529.299 264.317 529.826C262.313 536.774 260.878 543.873 260.027 551.054V551.064C259.948 551.611 259.878 552.178 259.819 552.734V552.744C257.945 570.064 259.299 587.582 263.81 604.408C263.82 604.457 263.84 604.497 263.85 604.547C265.535 610.793 267.665 616.911 270.225 622.852Z" fill="#F0F0F0"/>
<path d="M254.337 665.377C253.553 666.431 252.749 667.455 251.935 668.479C251.15 669.464 250.366 670.448 249.581 671.442C247.531 673.972 245.7 676.673 244.11 679.516C243.313 680.992 242.648 682.536 242.124 684.13L240.863 683.841C240.833 683.89 240.8 683.936 240.764 683.98C240.776 683.929 240.792 683.879 240.813 683.831C243.127 676.593 248.39 670.985 252.957 664.96C253.116 664.761 253.265 664.562 253.414 664.363L254.337 665.377Z" fill="white"/>
<path d="M265.091 528.822C264.833 529.15 264.565 529.488 264.317 529.826C262.381 532.341 260.55 534.937 258.826 537.611C255.755 542.33 253.027 547.265 250.664 552.376C250.475 552.774 250.286 553.182 250.108 553.589C245.051 564.759 241.754 576.646 240.337 588.827C240.317 588.946 240.307 589.056 240.297 589.175C239.969 592.019 239.758 594.872 239.662 597.736C239.345 603.128 239.878 608.537 241.24 613.764C241.439 614.45 241.657 615.126 241.896 615.782C242.493 617.39 243.241 618.938 244.13 620.406C244.768 621.476 245.478 622.503 246.255 623.478C246.722 624.075 247.208 624.661 247.724 625.228C248.022 625.556 248.33 625.884 248.638 626.212C248.896 626.461 249.144 626.719 249.403 626.968C252.084 629.573 255.043 631.989 257.465 634.863L256.979 636.364C254.645 633.401 251.637 630.945 248.926 628.36C247.224 626.758 245.675 625 244.299 623.11C244.12 622.852 243.931 622.593 243.763 622.325C242.843 620.979 242.048 619.551 241.389 618.059C241.052 617.313 240.744 616.548 240.466 615.752C238.844 610.612 238.105 605.232 238.281 599.844C238.313 596.392 238.519 592.944 238.897 589.513C238.937 589.066 238.986 588.628 239.046 588.181C240.053 580.014 241.889 571.972 244.527 564.179C247.865 554.292 252.457 544.875 258.19 536.16C259.829 533.664 261.566 531.228 263.403 528.852C263.642 528.523 263.89 528.205 264.148 527.877C264.674 527.201 265.618 528.146 265.091 528.822Z" fill="white"/>
<path d="M239.519 589.639C235.34 588.894 231.563 586.687 228.86 583.41C226.157 580.134 224.705 576.003 224.764 571.754C224.768 571.58 224.839 571.415 224.962 571.294C225.085 571.172 225.25 571.102 225.423 571.1C225.596 571.098 225.764 571.163 225.889 571.282C226.015 571.401 226.09 571.564 226.099 571.737C226.037 575.694 227.39 579.542 229.913 582.588C232.436 585.634 235.963 587.676 239.858 588.346C240.704 588.493 240.36 589.784 239.519 589.639V589.639Z" fill="white"/>
<path d="M247.386 625.465C254.545 620.558 259.593 613.13 261.524 604.661C261.715 603.822 263.006 604.162 262.815 605C260.789 613.809 255.52 621.529 248.059 626.62C247.348 627.104 246.679 625.948 247.386 625.465H247.386Z" fill="white"/>
<path d="M250.268 552.232C251.824 552.858 253.512 553.086 255.178 552.897C256.845 552.708 258.439 552.108 259.816 551.149C260.521 550.656 261.19 551.813 260.489 552.303C258.962 553.355 257.202 554.016 255.361 554.229C253.52 554.442 251.655 554.2 249.929 553.525C249.761 553.475 249.618 553.363 249.529 553.211C249.441 553.059 249.414 552.88 249.453 552.709C249.498 552.538 249.61 552.392 249.762 552.303C249.915 552.213 250.096 552.188 250.268 552.232V552.232Z" fill="white"/>
<path d="M391.822 111.288C384.304 70.9995 396.14 25.1644 429.037 0.77771C427.172 45.3094 441.099 89.0661 468.351 124.306C478.911 137.859 492.065 151.831 491.656 169.016C491.402 179.708 485.627 189.669 478.017 197.174C470.406 204.678 461.031 210.089 451.768 215.415L450.326 217.661C423.173 186.992 399.34 151.577 391.822 111.288Z" fill="#F0F0F0"/>
<path d="M429.636 1.39363C415.815 32.367 412.092 66.9136 418.995 100.126C420.517 107.233 422.679 114.309 426.345 120.623C429.966 126.749 435.159 131.793 441.385 135.231C447.126 138.552 453.383 141.284 458.217 145.945C463.313 150.858 465.582 157.564 465.393 164.57C465.162 173.142 461.868 181.119 458.376 188.809C454.5 197.346 450.338 206.152 450.589 215.751C450.62 216.914 448.816 216.893 448.785 215.732C448.348 199.032 460.405 185.621 463.092 169.597C464.345 162.12 463.356 154.219 458.107 148.423C453.516 143.355 447.067 140.532 441.225 137.219C435.091 133.741 429.869 129.443 425.987 123.485C422.017 117.39 419.574 110.383 417.877 103.347C414.148 87.3624 412.952 70.8902 414.333 54.5337C415.805 35.8575 420.457 17.571 428.088 0.46563C428.561 -0.592888 430.106 0.342025 429.636 1.39363H429.636Z" fill="white"/>
<path d="M416.144 89.563C410.421 89.9663 404.742 88.3197 400.121 84.9173C395.499 81.5148 392.236 76.5782 390.913 70.9888C390.65 69.857 392.394 69.3935 392.658 70.5269C393.88 75.7339 396.92 80.3322 401.23 83.4917C405.54 86.6512 410.836 88.1639 416.163 87.7567C417.32 87.6696 417.295 89.4764 416.144 89.563V89.563Z" fill="white"/>
<path d="M438.253 133.93C446.021 125.134 450.193 113.73 449.936 101.991C449.91 100.827 451.714 100.848 451.74 102.009C451.984 114.226 447.619 126.085 439.515 135.221C438.742 136.091 437.484 134.796 438.253 133.93V133.93Z" fill="white"/>
<path d="M417.919 36.9792C420.165 37.2851 422.452 37.0275 424.575 36.2296C426.697 35.4316 428.589 34.1183 430.079 32.4075C430.841 31.5279 432.098 32.8242 431.341 33.6981C429.686 35.5805 427.595 37.0284 425.252 37.9153C422.909 38.8021 420.385 39.1008 417.9 38.7854C417.663 38.7754 417.439 38.6754 417.273 38.5059C417.107 38.3364 417.012 38.11 417.007 37.8728C417.011 37.6337 417.109 37.4057 417.279 37.2383C417.45 37.071 417.68 36.9778 417.919 36.9791V36.9792Z" fill="white"/>
<path d="M563.566 34.1025C563.106 34.6653 562.646 35.2281 562.19 35.8056C556.045 43.4038 550.527 51.4893 545.69 59.9823C545.306 60.633 544.926 61.2982 544.561 61.9586C533.126 82.5447 525.606 105.078 522.386 128.412C521.113 137.699 520.547 147.069 520.694 156.441C520.897 169.385 522.146 183.403 518.183 195.308C517.784 196.555 517.308 197.775 516.757 198.963L453.174 219.248C453.007 219.222 452.843 219.21 452.675 219.184L450.173 220.11C450.132 219.627 450.099 219.125 450.058 218.642C450.033 218.362 450.022 218.078 449.997 217.798C449.985 217.61 449.973 217.421 449.951 217.252C449.947 217.19 449.943 217.127 449.944 217.079C449.922 216.91 449.919 216.75 449.902 216.596C449.713 213.792 449.538 210.984 449.393 208.166C449.388 208.152 449.388 208.152 449.398 208.132C448.307 186.672 448.995 164.931 452.957 143.986C453.076 143.356 453.19 142.712 453.339 142.072C455.177 132.641 457.782 123.376 461.127 114.37C462.975 109.445 465.07 104.616 467.406 99.9026C473.463 87.7355 481.395 76.5983 490.908 66.8992C509.877 47.5669 534.809 34.5245 561.524 34.1138C562.208 34.1038 562.878 34.098 563.566 34.1025Z" fill="#F0F0F0"/>
<path d="M563.68 34.9561C534.021 51.3543 510.277 76.6931 495.819 107.374C492.762 113.965 490.233 120.919 489.364 128.17C488.571 135.245 489.685 142.403 492.59 148.901C495.176 155.014 498.529 160.967 499.586 167.603C500.701 174.598 498.481 181.32 494.118 186.8C488.779 193.505 481.353 197.889 473.941 201.923C465.713 206.403 457.095 210.925 451.524 218.74C450.849 219.687 449.421 218.583 450.095 217.638C459.787 204.04 477.478 200.601 489.258 189.426C494.754 184.212 498.715 177.307 498.008 169.515C497.39 162.701 493.938 156.559 491.266 150.392C488.46 143.916 486.874 137.336 487.358 130.239C487.852 122.979 490.114 115.912 492.99 109.271C499.624 94.2599 508.573 80.3867 519.51 68.1595C531.915 54.1352 546.624 42.3392 563.002 33.2818C564.016 32.7217 564.687 34.3996 563.68 34.9561V34.9561Z" fill="white"/>
<path d="M499.894 97.2202C495.082 94.0925 491.538 89.354 489.894 83.8511C488.249 78.3481 488.612 72.4391 490.917 67.1791C491.387 66.1165 493.058 66.7979 492.587 67.862C490.432 72.7561 490.095 78.2604 491.637 83.3816C493.178 88.5028 496.497 92.9035 500.995 95.7894C501.971 96.4177 500.865 97.8449 499.894 97.2202H499.894Z" fill="white"/>
<path d="M490.87 145.974C502.361 143.634 512.549 137.043 519.403 127.516C520.081 126.571 521.509 127.675 520.832 128.618C513.682 138.52 503.065 145.357 491.102 147.766C489.962 147.994 489.736 146.202 490.87 145.974H490.87Z" fill="white"/>
<path d="M532.928 56.3051C534.537 57.9037 536.519 59.0769 538.693 59.7194C540.868 60.3619 543.167 60.4535 545.386 59.9861C546.523 59.7429 546.747 61.5359 545.618 61.7775C543.164 62.2826 540.624 62.1783 538.22 61.4737C535.816 60.7692 533.621 59.4859 531.827 57.7359C531.644 57.5851 531.525 57.3703 531.494 57.135C531.464 56.8997 531.524 56.6616 531.663 56.4692C531.809 56.2805 532.025 56.1574 532.262 56.1267C532.498 56.0959 532.738 56.1601 532.928 56.3051V56.3051Z" fill="white"/>
<path d="M154.977 63.159C151.464 60.6756 147.62 58.0861 143.321 58.1895C132.915 58.4401 127.305 73.7145 116.91 73.1773C110.281 72.8348 105.88 66.0916 99.7081 63.6465C91.6723 60.4635 81.4461 66.6887 80.5695 75.2973L81.6014 74.3515C112.838 81.9767 145.254 83.4762 177.059 78.7673C169.699 73.5645 162.338 68.3618 154.977 63.159Z" fill="#F0F0F0"/>
<path d="M174.447 81.5315C194.388 81.5315 210.553 65.3445 210.553 45.3767C210.553 25.4089 194.388 9.2218 174.447 9.2218C154.505 9.2218 138.34 25.4089 138.34 45.3767C138.34 65.3445 154.505 81.5315 174.447 81.5315Z" fill="#57CDFF"/>
<path d="M258.963 38.4701C254.486 35.3053 249.587 32.0051 244.108 32.137C230.847 32.4563 223.697 51.9222 210.45 51.2377C202.002 50.8011 196.394 42.2075 188.528 39.0914C178.287 35.0349 165.254 42.9685 164.137 53.9393L165.452 52.734C205.261 62.4517 246.571 64.3627 287.105 58.3616C277.725 51.7311 268.344 45.1006 258.963 38.4701Z" fill="#F0F0F0"/>
<path d="M583.744 401.413L545.426 195.974C544.771 192.587 542.986 189.524 540.363 187.287C537.741 185.05 534.438 183.771 530.995 183.66C530.685 183.653 530.375 183.653 530.065 183.66L503.962 184.598L501.153 184.701L488.126 185.17L485.317 185.266L476.937 185.57L307.969 191.644C307.715 191.658 307.453 191.658 307.198 191.651L269.335 190.858L255.324 190.569L254.876 190.562L244.534 190.341L154.418 188.466L130.526 187.962L118.745 187.721L115.922 187.659L102.488 187.383L99.6722 187.321L85.9289 187.038L83.1128 186.976L68.0131 186.659L65.6445 186.611L52.1766 186.328L50.0491 186.287H49.7393C46.1638 186.301 42.7087 187.581 39.9845 189.9C37.2604 192.219 35.4428 195.428 34.853 198.959L0.198741 412.141C-0.153177 414.3 -0.0320379 416.51 0.553768 418.618C1.13957 420.726 2.17602 422.682 3.59134 424.349C5.00667 426.016 6.76702 427.355 8.75044 428.273C10.7339 429.191 12.8929 429.667 15.0781 429.667H214.094C217.023 429.675 219.874 430.617 222.232 432.356L226.006 435.155C228.606 437.072 231.748 438.11 234.977 438.12H352.263C354.245 438.125 356.208 437.736 358.039 436.976C359.87 436.216 361.532 435.101 362.929 433.693C365.318 431.302 368.506 429.88 371.88 429.701L569.711 419.263C571.857 419.151 573.953 418.58 575.86 417.591C577.768 416.601 579.442 415.215 580.771 413.525C582.099 411.834 583.052 409.879 583.565 407.79C584.077 405.702 584.138 403.527 583.744 401.413V401.413Z" fill="#CCCCCC"/>
<path d="M552.388 395.828L531.029 183.936C531.022 183.846 531.008 183.75 530.995 183.66C530.595 180.275 528.926 177.167 526.326 174.966L480.38 136.639C478.382 134.959 475.899 133.966 473.295 133.805C452.274 132.454 345.405 127.448 305.959 161.735C304.762 162.778 303.351 163.546 301.826 163.984C300.301 164.423 298.699 164.521 297.132 164.272C295.561 164.017 294.064 163.426 292.743 162.538C291.421 161.65 290.307 160.488 289.475 159.129C286.121 153.894 281.726 149.407 276.565 145.947C274.248 144.335 271.833 142.869 269.335 141.555C267.125 140.39 264.722 139.259 262.106 138.169C259.854 137.232 257.451 136.329 254.876 135.467C241.525 130.999 223.678 127.662 199.827 126.545C189.933 126.076 179.178 126.014 167.865 126.352C157.537 126.655 146.562 127.283 135.249 128.221L135.084 128.227L58.5387 175.021C56.8227 176.092 55.3725 177.541 54.2977 179.256C53.2229 180.971 52.5518 182.909 52.335 184.922L52.1766 186.328L27.8711 403.791C27.6612 405.639 27.8308 407.51 28.3696 409.29C28.9083 411.069 29.8048 412.72 31.004 414.14C32.1713 415.524 33.6248 416.638 35.2642 417.405C36.9036 418.172 38.6897 418.572 40.499 418.58H229.104C231.612 418.593 234.041 419.456 235.996 421.028L244.231 427.633C246.377 429.358 249.033 430.323 251.785 430.377L334.712 431.735H334.912C337.006 431.731 339.065 431.195 340.895 430.177L356.89 421.283C358.349 420.469 359.974 419.998 361.641 419.904L540.386 410.451C542.128 410.358 543.831 409.899 545.384 409.103C546.937 408.307 548.305 407.193 549.399 405.832C550.536 404.447 551.386 402.849 551.899 401.131C552.412 399.414 552.578 397.611 552.388 395.828V395.828Z" fill="#E6E6E6"/>
<path d="M489.997 357.615L487.494 324.635L476.939 185.574L475.37 165.002C474.973 159.599 472.581 154.537 468.66 150.803C464.739 147.07 459.57 144.933 454.161 144.808C415.485 143.814 345.451 145.564 311.085 168.621C307.263 171.223 302.626 172.345 298.039 171.778C293.452 171.211 289.227 168.993 286.152 165.539C281.397 160.311 275.687 156.042 269.331 152.961C264.68 150.625 259.844 148.676 254.874 147.135C240.327 142.481 221.97 139.654 199.804 138.653L147.197 138.345H147.108C143.463 138.348 139.957 139.741 137.301 142.24C134.646 144.738 133.039 148.156 132.809 151.798L130.525 187.96L120.546 346.549C120.359 349.503 120.774 352.465 121.765 355.254C122.757 358.043 124.303 360.601 126.312 362.773C128.321 364.945 130.749 366.686 133.45 367.89C136.151 369.093 139.068 369.735 142.024 369.775C230.328 371.088 268.904 389.751 285.725 405.162C289.302 408.448 293.871 410.445 298.709 410.838C303.547 411.23 308.377 409.996 312.435 407.33C342.969 387.305 393.729 381.737 434.133 380.872C446.505 380.613 457.904 380.782 467.456 381.12C470.526 381.231 473.585 380.691 476.433 379.536C479.28 378.382 481.852 376.638 483.98 374.419C486.107 372.2 487.743 369.556 488.78 366.66C489.817 363.765 490.231 360.682 489.997 357.615V357.615Z" fill="white"/>
<path d="M51.6188 403.614C51.5858 403.614 51.5515 403.613 51.5185 403.61C51.3343 403.597 51.1545 403.548 50.9893 403.465C50.8241 403.382 50.6768 403.268 50.5558 403.129C50.4347 402.989 50.3424 402.827 50.2839 402.651C50.2254 402.476 50.202 402.291 50.2151 402.107L65.4085 187.288C65.4193 187.103 65.467 186.922 65.5488 186.755C65.6305 186.589 65.7447 186.441 65.8846 186.319C66.0244 186.197 66.1872 186.105 66.3632 186.047C66.5393 185.99 66.7251 185.968 66.9097 185.983C67.0938 185.996 67.2736 186.045 67.4388 186.128C67.604 186.21 67.7513 186.325 67.8724 186.464C67.9934 186.604 68.0858 186.766 68.1443 186.941C68.2027 187.117 68.2261 187.302 68.2131 187.486L53.0197 402.305C52.995 402.66 52.8367 402.992 52.5767 403.235C52.3167 403.478 51.9744 403.614 51.6188 403.614Z" fill="white"/>
<path d="M69.9025 395.164C69.8695 395.164 69.8352 395.163 69.8022 395.16C69.618 395.147 69.4382 395.098 69.2731 395.015C69.1079 394.933 68.9606 394.818 68.8395 394.679C68.7185 394.539 68.6261 394.377 68.5676 394.202C68.5092 394.026 68.4858 393.841 68.4988 393.657L83.6922 178.838C83.703 178.653 83.7507 178.472 83.8325 178.306C83.9142 178.139 84.0284 177.991 84.1683 177.869C84.3081 177.748 84.4709 177.655 84.6469 177.597C84.823 177.54 85.0088 177.518 85.1934 177.533C85.3775 177.546 85.5574 177.595 85.7225 177.678C85.8877 177.76 86.035 177.875 86.1561 178.014C86.2771 178.154 86.3695 178.316 86.428 178.491C86.4864 178.667 86.5098 178.852 86.4968 179.036L71.3035 393.855C71.2787 394.21 71.1204 394.543 70.8604 394.786C70.6004 395.029 70.2581 395.164 69.9025 395.164V395.164Z" fill="white"/>
<path d="M86.7798 390.939C86.7468 390.939 86.7124 390.938 86.6795 390.935C86.4953 390.922 86.3155 390.873 86.1503 390.79C85.9851 390.708 85.8378 390.593 85.7168 390.454C85.5957 390.314 85.5033 390.152 85.4449 389.977C85.3864 389.801 85.363 389.616 85.376 389.432L100.569 174.613C100.58 174.428 100.628 174.247 100.71 174.081C100.791 173.914 100.906 173.766 101.046 173.644C101.185 173.523 101.348 173.43 101.524 173.373C101.7 173.315 101.886 173.293 102.071 173.308C102.255 173.321 102.435 173.37 102.6 173.453C102.765 173.535 102.912 173.65 103.033 173.789C103.154 173.929 103.247 174.091 103.305 174.266C103.364 174.442 103.387 174.627 103.374 174.811L88.1807 389.63C88.156 389.985 87.9976 390.318 87.7377 390.561C87.4777 390.804 87.1354 390.939 86.7798 390.939V390.939Z" fill="white"/>
<path d="M103.657 382.489C103.624 382.489 103.59 382.488 103.557 382.485C103.373 382.472 103.193 382.423 103.028 382.34C102.862 382.258 102.715 382.143 102.594 382.004C102.473 381.864 102.381 381.702 102.322 381.527C102.264 381.351 102.24 381.166 102.253 380.982L117.447 166.163C117.458 165.978 117.505 165.797 117.587 165.631C117.669 165.464 117.783 165.316 117.923 165.194C118.063 165.073 118.225 164.98 118.401 164.923C118.578 164.865 118.763 164.843 118.948 164.858C119.132 164.871 119.312 164.92 119.477 165.003C119.642 165.086 119.79 165.2 119.911 165.339C120.032 165.479 120.124 165.641 120.183 165.817C120.241 165.992 120.264 166.177 120.251 166.361L105.058 381.18C105.033 381.535 104.875 381.868 104.615 382.111C104.355 382.354 104.013 382.489 103.657 382.489V382.489Z" fill="white"/>
<path d="M535.431 405.022C535.464 405.022 535.498 405.021 535.531 405.018C535.716 405.005 535.895 404.956 536.061 404.873C536.226 404.791 536.373 404.676 536.494 404.537C536.615 404.397 536.708 404.235 536.766 404.06C536.824 403.884 536.848 403.699 536.835 403.515L521.641 188.696C521.631 188.511 521.583 188.33 521.501 188.164C521.419 187.997 521.305 187.849 521.165 187.727C521.025 187.606 520.863 187.513 520.687 187.456C520.511 187.398 520.325 187.376 520.14 187.391C519.956 187.404 519.776 187.453 519.611 187.536C519.446 187.619 519.299 187.733 519.178 187.873C519.056 188.012 518.964 188.174 518.906 188.35C518.847 188.525 518.824 188.71 518.837 188.895L534.03 403.713C534.055 404.068 534.213 404.401 534.473 404.644C534.733 404.887 535.076 405.022 535.431 405.022V405.022Z" fill="white"/>
<path d="M517.148 392.347C517.18 392.347 517.215 392.346 517.248 392.343C517.432 392.33 517.612 392.281 517.777 392.199C517.942 392.116 518.089 392.002 518.21 391.862C518.332 391.722 518.424 391.56 518.482 391.385C518.541 391.21 518.564 391.024 518.551 390.84L503.358 176.022C503.347 175.837 503.299 175.655 503.218 175.489C503.136 175.323 503.022 175.174 502.882 175.052C502.742 174.931 502.579 174.839 502.403 174.781C502.227 174.723 502.041 174.701 501.857 174.717C501.672 174.729 501.493 174.779 501.327 174.861C501.162 174.944 501.015 175.058 500.894 175.198C500.773 175.337 500.68 175.499 500.622 175.675C500.564 175.85 500.54 176.035 500.553 176.22L515.747 391.038C515.771 391.393 515.93 391.726 516.19 391.969C516.45 392.212 516.792 392.347 517.148 392.347V392.347Z" fill="white"/>
<path d="M500.27 378.264C500.303 378.264 500.338 378.263 500.37 378.26C500.555 378.247 500.734 378.198 500.9 378.115C501.065 378.033 501.212 377.918 501.333 377.779C501.454 377.639 501.547 377.477 501.605 377.302C501.664 377.126 501.687 376.941 501.674 376.757L486.481 161.938C486.47 161.753 486.422 161.572 486.34 161.406C486.258 161.239 486.144 161.091 486.004 160.969C485.865 160.848 485.702 160.755 485.526 160.698C485.35 160.64 485.164 160.618 484.979 160.633C484.795 160.646 484.615 160.695 484.45 160.778C484.285 160.861 484.138 160.975 484.017 161.114C483.896 161.254 483.803 161.416 483.745 161.592C483.686 161.767 483.663 161.952 483.676 162.136L498.869 376.955C498.894 377.31 499.052 377.643 499.312 377.886C499.572 378.129 499.915 378.264 500.27 378.264V378.264Z" fill="white"/>
<path d="M155.116 186.873C186.819 176.745 222.187 179.426 252.22 193.694C260.79 197.744 268.883 202.736 276.351 208.577C278.463 210.237 281.469 207.267 279.334 205.589C251.749 184.164 217.089 173.987 182.317 177.101C172.697 177.963 163.2 179.873 153.995 182.799C151.418 183.622 152.519 187.703 155.116 186.873H155.116Z" fill="#3F3D56"/>
<path d="M329.563 210.215C359.038 194.702 394.334 191.319 426.381 200.125C435.517 202.63 444.347 206.145 452.706 210.606C455.101 211.886 457.235 208.24 454.836 206.958C424.292 190.639 387.628 186.882 354.274 195.979C344.97 198.521 335.97 202.072 327.434 206.567C325.029 207.833 327.159 211.481 329.563 210.215V210.215Z" fill="#3F3D56"/>
<path d="M329.563 238.382C359.038 222.869 394.334 219.486 426.381 228.292C435.517 230.796 444.347 234.312 452.706 238.773C455.101 240.052 457.235 236.406 454.836 235.125C424.292 218.805 387.628 215.048 354.274 224.145C344.97 226.688 335.97 230.238 327.434 234.734C325.029 235.999 327.159 239.647 329.563 238.382V238.382Z" fill="#3F3D56"/>
<path d="M455.868 265.037C455.89 264.675 455.803 264.314 455.617 264.001C455.432 263.689 455.157 263.44 454.828 263.286C430.36 250.457 402.618 245.253 375.171 248.345C374.999 248.359 374.841 248.387 374.655 248.401H374.648C374.479 248.416 374.311 248.441 374.145 248.476C357.82 250.357 341.984 255.245 327.435 262.893C327.117 263.082 326.855 263.351 326.672 263.672C326.49 263.994 326.394 264.357 326.395 264.727V317.271C326.4 317.594 326.479 317.912 326.625 318.2C326.771 318.489 326.98 318.74 327.238 318.936C327.495 319.131 327.794 319.265 328.11 319.328C328.427 319.39 328.754 319.38 329.066 319.298C329.714 319.112 330.361 318.932 331.022 318.76C345.731 314.773 360.83 312.408 376.052 311.707C376.376 311.693 376.7 311.679 377.037 311.665C389.435 311.132 401.856 311.579 414.184 313.003C414.442 313.018 414.699 313.045 414.955 313.086C415.588 313.155 416.236 313.231 416.869 313.313C417.124 313.341 417.365 313.368 417.599 313.41C420.064 313.72 422.508 314.072 424.959 314.451C428.498 315.016 432.038 315.646 435.577 316.34C435.797 316.381 436.024 316.437 436.251 316.478C441.932 317.609 447.585 318.919 453.21 320.366C453.523 320.447 453.851 320.456 454.168 320.392C454.485 320.328 454.784 320.192 455.041 319.996C455.298 319.799 455.507 319.547 455.653 319.258C455.799 318.968 455.877 318.65 455.882 318.326V265.12C455.884 265.092 455.879 265.063 455.868 265.037Z" fill="#3F3D56"/>
<path d="M378.479 251.211C376.933 250.452 375.161 250.297 373.507 250.773C372.777 251.048 372.108 251.464 371.539 252C370.971 252.535 370.514 253.178 370.196 253.892C369.623 255.26 369.255 256.705 369.106 258.181C369.019 258.762 369.013 259.494 369.596 259.765C369.807 259.842 370.036 259.86 370.257 259.816C370.477 259.772 370.682 259.669 370.848 259.517C371.149 259.22 371.397 258.873 371.581 258.492C372.593 256.916 373.986 255.62 375.63 254.725C377.274 253.83 379.117 253.364 380.989 253.371L382.546 253.993C381.321 252.888 379.953 251.952 378.479 251.211V251.211Z" fill="#FF6582"/>
<path d="M395.338 263.321C394.129 261.539 392.697 259.637 390.453 259.055C387.855 258.381 385.187 259.719 382.923 261.04C376.192 264.966 369.673 269.247 363.395 273.864L363.402 273.934L377.974 273.038C381.483 272.822 385.113 272.577 388.215 271.097C389.329 270.398 390.573 269.934 391.872 269.733C392.678 269.777 393.468 269.98 394.195 270.331C394.922 270.682 395.573 271.173 396.109 271.777C402.825 278.151 404.768 287.899 412.303 293.499C407.508 282.978 401.833 272.883 395.338 263.321V263.321Z" fill="white"/>
<path d="M377.039 311.665C376.702 311.679 376.378 311.693 376.055 311.707C373.706 310.862 371.301 310.116 368.868 309.468C367.293 309.045 365.689 308.665 364.086 308.341C362.272 307.947 360.443 307.637 358.615 307.369C355.134 306.862 351.626 306.566 348.109 306.482C348.082 306.485 348.055 306.482 348.03 306.474C348.004 306.466 347.981 306.452 347.961 306.434C347.941 306.416 347.925 306.394 347.914 306.37C347.903 306.345 347.898 306.319 347.898 306.292C347.898 306.265 347.903 306.239 347.914 306.214C347.925 306.19 347.941 306.168 347.961 306.15C347.981 306.132 348.004 306.118 348.03 306.11C348.055 306.102 348.082 306.099 348.109 306.102C348.559 306.102 349.009 306.116 349.445 306.144C352.969 306.275 356.482 306.618 359.965 307.172C361.78 307.468 363.594 307.82 365.394 308.214C367.026 308.581 368.657 308.989 370.26 309.44C372.553 310.087 374.812 310.829 377.039 311.665Z" fill="white"/>
<path d="M417.601 313.411C417.362 313.369 417.123 313.34 416.87 313.312C415.899 312.51 414.915 311.749 413.888 311.003C412.608 310.073 411.286 309.2 409.936 308.383C406.946 306.566 403.824 304.975 400.597 303.623C395.495 301.496 390.214 299.827 384.817 298.638C378.66 297.287 372.428 296.309 366.154 295.708C359.881 295.06 353.58 294.666 347.279 294.272C347.012 294.258 346.998 293.864 347.279 293.878C348.067 293.934 348.854 293.976 349.656 294.032C356.027 294.427 362.398 294.878 368.727 295.596C375.003 296.269 381.228 297.351 387.363 298.835C392.6 300.127 397.712 301.885 402.637 304.088C405.469 305.362 408.213 306.826 410.85 308.468C412.524 309.524 414.141 310.651 415.688 311.848C416.335 312.355 416.982 312.862 417.601 313.411Z" fill="white"/>
<path d="M414.957 313.087C414.701 313.046 414.443 313.018 414.184 313.003C413.888 312.763 413.579 312.538 413.269 312.312C411.104 310.761 408.845 309.345 406.504 308.073C404.379 306.917 402.196 305.869 399.964 304.933C394.865 302.799 389.583 301.131 384.184 299.948C378.027 298.597 371.795 297.619 365.521 297.018C359.248 296.37 352.947 295.976 346.646 295.582C346.379 295.554 346.379 295.173 346.646 295.187C347.448 295.244 348.235 295.286 349.023 295.342C355.394 295.736 361.766 296.187 368.094 296.905C374.37 297.579 380.595 298.661 386.73 300.145C391.968 301.435 397.079 303.193 402.004 305.398C403.86 306.243 405.674 307.158 407.447 308.158C410.074 309.603 412.586 311.251 414.957 313.087V313.087Z" fill="white"/>
<path d="M436.25 316.481C436.026 316.439 435.8 316.383 435.575 316.34C435.322 316.073 435.083 315.791 434.844 315.509C433.635 314.115 432.439 312.707 431.258 311.284C426.602 305.736 422.186 300.018 418.023 294.187C414.451 289.202 411.061 284.118 407.854 278.935C406.321 276.485 404.845 274.006 403.396 271.499C402.271 269.556 401.174 267.608 400.105 265.655C399.796 265.091 399.5 264.528 399.205 263.965C398.516 262.641 397.826 261.303 397.095 259.993C396.3 258.389 395.133 256.998 393.692 255.937C392.971 255.454 392.137 255.168 391.272 255.107C390.053 255.111 388.854 255.421 387.785 256.008C379.916 259.677 372.493 264.237 365.661 269.598C358.989 274.795 352.955 280.766 347.687 287.385C347.518 287.582 347.152 287.399 347.307 287.188C347.94 286.399 348.587 285.611 349.234 284.836C354.297 278.839 359.999 273.413 366.238 268.655C366.252 268.64 366.28 268.626 366.294 268.612C366.843 268.176 367.391 267.753 367.954 267.345C371.437 264.776 375.062 262.407 378.812 260.247C380.724 259.134 382.679 258.078 384.676 257.078C385.168 256.825 385.675 256.571 386.181 256.332C386.688 256.078 387.194 255.839 387.7 255.599C388.702 255.088 389.798 254.786 390.921 254.712C394.831 254.656 396.842 258.599 398.234 261.261C398.67 262.092 399.121 262.923 399.557 263.754C401.244 266.894 403.002 270.021 404.831 273.105C405.942 275.02 407.095 276.921 408.262 278.809C409.936 281.499 411.652 284.16 413.438 286.808C413.438 286.81 413.438 286.812 413.439 286.813C413.44 286.815 413.441 286.817 413.442 286.818C413.443 286.819 413.445 286.82 413.447 286.821C413.448 286.822 413.45 286.822 413.452 286.822C415.52 289.948 417.671 293.019 419.894 296.075C423.705 301.299 427.699 306.407 431.877 311.397C433.311 313.115 434.769 314.81 436.25 316.481Z" fill="white"/>
<path d="M455.884 310.27V310.918C454.492 309.285 453.071 307.665 451.665 306.045C451.074 305.369 450.484 304.693 449.893 304.018C447.389 301.173 444.872 298.337 442.34 295.511C439.795 292.695 437.249 289.878 434.675 287.075C434.056 286.399 433.438 285.723 432.805 285.047C432.298 284.479 431.748 283.952 431.159 283.47C430.565 282.975 429.882 282.598 429.148 282.357C428.302 282.123 427.41 282.113 426.56 282.329C425.589 282.555 424.661 282.907 423.719 283.203C422.748 283.526 421.792 283.836 420.822 284.146C418.881 284.78 416.954 285.414 415.013 286.047C414.989 286.057 414.963 286.062 414.938 286.061C414.912 286.061 414.886 286.055 414.863 286.045C414.839 286.034 414.818 286.019 414.8 286C414.782 285.981 414.769 285.959 414.76 285.935C414.749 285.908 414.744 285.879 414.745 285.85C414.746 285.821 414.754 285.793 414.768 285.768C414.781 285.742 414.8 285.72 414.823 285.703C414.846 285.685 414.873 285.673 414.901 285.667C415.379 285.512 415.871 285.357 416.364 285.202C418.318 284.554 420.259 283.921 422.214 283.287C423.185 282.963 424.155 282.653 425.126 282.344C426.026 282.001 426.976 281.811 427.938 281.78C429.509 281.893 430.983 282.586 432.073 283.724C432.678 284.287 433.227 284.878 433.775 285.484C434.422 286.188 435.069 286.892 435.716 287.597C438.318 290.441 440.901 293.296 443.465 296.159C446.039 299.032 448.59 301.91 451.116 304.792C451.299 305.003 451.482 305.215 451.665 305.426C453.085 307.031 454.478 308.651 455.884 310.27Z" fill="white"/>
<path d="M386.073 254.283L385.684 254.453C384.793 252.946 383.544 251.683 382.048 250.776C380.552 249.87 378.855 249.347 377.109 249.255C371.35 248.845 366.292 252.687 365.833 257.819C365.646 259.933 366.257 262.039 367.545 263.723L367.184 263.937C365.842 262.183 365.206 259.989 365.4 257.789C365.879 252.444 371.147 248.443 377.143 248.869C378.962 248.965 380.729 249.51 382.286 250.454C383.844 251.399 385.145 252.714 386.073 254.283V254.283Z" fill="#FF6582"/>
<path d="M357.621 264.666C356.11 264.008 354.464 263.719 352.819 263.824C351.175 263.929 349.579 264.424 348.163 265.269C353.331 266.063 358.454 267.129 363.51 268.461C361.417 267.368 359.779 265.655 357.621 264.666Z" fill="white"/>
<path d="M348.134 265.264L347.565 265.676C347.757 265.532 347.957 265.397 348.163 265.269L348.134 265.264Z" fill="white"/>
<path d="M430.941 286.065C430.409 285.379 429.701 284.852 428.893 284.541L428.093 284.569C434.37 294.35 442.594 302.73 452.251 309.185C445.147 301.478 438.044 293.772 430.941 286.065Z" fill="white"/>
<path d="M365.271 267.655C365.045 267.43 364.819 267.204 364.591 266.979C362.84 265.071 360.732 263.527 358.386 262.433C357.192 261.929 355.911 261.664 354.615 261.654C353.276 261.685 351.952 261.942 350.699 262.415C350.11 262.625 349.533 262.863 348.965 263.117C348.317 263.408 347.679 263.718 347.045 264.031C345.854 264.618 344.679 265.231 343.519 265.87C341.212 267.141 338.976 268.51 336.813 269.975C335.692 270.735 334.594 271.519 333.519 272.329C332.519 273.081 331.539 273.853 330.58 274.646C330.375 274.815 330.068 274.542 330.274 274.373C330.526 274.163 330.782 273.954 331.038 273.748C331.76 273.166 332.494 272.595 333.24 272.035C334.6 271.013 335.995 270.03 337.425 269.086C339.648 267.618 341.949 266.249 344.326 264.98C345.513 264.347 346.718 263.74 347.938 263.159C348.307 262.984 348.679 262.813 349.056 262.65C349.918 262.264 350.806 261.941 351.715 261.686C353.019 261.312 354.382 261.192 355.731 261.334C357.022 261.499 358.275 261.886 359.435 262.477C361.735 263.767 363.81 265.423 365.578 267.381C365.763 267.566 365.458 267.841 365.271 267.655Z" fill="white"/>
<path d="M155.116 215.039C186.819 204.911 222.187 207.592 252.22 221.861C260.79 225.911 268.883 230.902 276.351 236.743C278.463 238.403 281.469 235.433 279.334 233.755C251.749 212.331 217.089 202.153 182.317 205.267C172.697 206.129 163.2 208.04 153.995 210.965C151.418 211.788 152.519 215.869 155.116 215.039H155.116Z" fill="#3F3D56"/>
<path d="M155.116 243.205C186.819 233.077 222.187 235.759 252.22 250.027C260.79 254.077 268.883 259.069 276.351 264.909C278.463 266.569 281.469 263.6 279.334 261.922C251.749 240.497 217.089 230.32 182.317 233.434C172.697 234.296 163.2 236.206 153.995 239.131C151.418 239.955 152.519 244.035 155.116 243.205H155.116Z" fill="#3F3D56"/>
<path d="M155.116 271.372C186.819 261.244 222.187 263.925 252.22 278.194C260.79 282.244 268.883 287.235 276.351 293.076C278.463 294.736 281.469 291.766 279.334 290.088C251.749 268.664 217.089 258.486 182.317 261.6C172.697 262.462 163.2 264.373 153.995 267.298C151.418 268.121 152.519 272.202 155.116 271.372H155.116Z" fill="#3F3D56"/>
<path d="M155.116 299.538C186.819 289.41 222.187 292.092 252.22 306.36C260.79 310.41 268.883 315.401 276.351 321.242C278.463 322.902 281.469 319.933 279.334 318.255C251.749 296.83 217.089 286.652 182.317 289.767C172.697 290.629 163.2 292.539 153.995 295.464C151.418 296.288 152.519 300.368 155.116 299.538H155.116Z" fill="#3F3D56"/>
<path d="M155.116 327.705C186.819 317.577 222.187 320.258 252.22 334.526C260.79 338.576 268.883 343.568 276.351 349.409C278.463 351.069 281.469 348.099 279.334 346.421C251.749 324.996 217.089 314.819 182.317 317.933C172.697 318.795 163.2 320.705 153.995 323.631C151.418 324.454 152.519 328.534 155.116 327.705L155.116 327.705Z" fill="#3F3D56"/>
<path d="M269.335 141.555V220.498C269.335 221.842 266.994 222.966 263.834 223.27C263.283 223.325 262.705 223.352 262.106 223.352C260.366 223.385 258.635 223.103 256.997 222.518C256.693 222.4 256.398 222.259 256.115 222.098C255.331 221.636 254.876 221.091 254.876 220.498V135.467C257.451 136.329 259.854 137.232 262.106 138.169C264.722 139.259 267.125 140.389 269.335 141.555Z" fill="#57CDFF"/>
<path d="M299.639 168.623H297.574V423.986H299.639V168.623Z" fill="#E6E6E6"/>
<path d="M483.989 374.409C481.859 376.629 479.286 378.373 476.438 379.53C473.589 380.686 470.528 381.228 467.456 381.12C457.904 380.782 446.505 380.613 434.133 380.872L434.063 380.812L487.683 311.212L489.997 357.615C490.228 360.68 489.813 363.759 488.778 366.653C487.743 369.546 486.111 372.189 483.989 374.409V374.409Z" fill="#F2F2F2"/>
<path d="M350.506 617.661L347.646 640.908L345.462 658.576L344.588 665.705H332.156V659.372L332.146 638.412V617.661H350.506Z" fill="#FFB6B6"/>
<path d="M263.82 615.225L260.295 626.123L257.465 634.863L256.979 636.364L255.043 642.34L250.952 654.977L248.916 661.271L237.606 659.083L236.703 658.914L237.437 655.116L237.884 652.8L242.829 627.127L243.634 622.991L243.763 622.325L244.13 620.406L245.798 611.745L257.853 614.072L259.243 614.34L263.82 615.225Z" fill="#FFB6B6"/>
<path d="M369.183 479.227C362.074 518.352 360.296 535.245 360.296 535.245C360.296 535.245 365.628 541.469 362.074 545.029C358.519 548.588 362.074 555.697 362.074 555.697L354.08 641.952L347.646 640.908L332.146 638.412L326.555 637.507L330.11 556.592C330.11 556.592 326.555 549.473 328.333 547.693C330.11 545.914 326.555 535.245 326.555 535.245L322.117 450.77L294.582 543.249C294.582 543.249 297.253 546.808 294.582 549.473C291.921 552.138 286.599 565.481 286.599 565.481L270.225 622.851L268.835 627.724L260.295 626.123L251.001 624.373L249.293 624.055L246.255 623.478L244.299 623.11L243.633 622.991L240.416 622.384L241.389 618.059L241.896 615.782L255.747 554.176L256.065 552.754L256.403 551.253C256.403 551.253 254.625 546.808 257.287 544.134C258.065 543.319 258.634 542.326 258.943 541.242C259.253 540.157 259.294 539.014 259.064 537.91C258.977 537.817 258.897 537.717 258.826 537.611C258.511 537.179 258.294 536.684 258.19 536.16C257.952 535.046 258.16 533.485 259.958 531.685C260.464 531.147 260.889 530.537 261.219 529.876C263.92 524.755 265.28 513.907 265.28 513.907C265.28 513.907 267.683 427.991 275.547 414.866C275.858 414.294 276.296 413.8 276.828 413.425C285.705 408.095 370.951 413.425 370.951 413.425C370.951 413.425 371.07 414.041 371.258 415.214C372.281 421.807 375.21 446.037 369.183 479.227Z" fill="#2F2E41"/>
<path d="M366.389 321.385L368.878 306.37L414.717 314.094L479.751 318.754C481.162 317.191 483.04 316.125 485.105 315.717C487.169 315.308 489.31 315.579 491.209 316.487C493.108 317.396 494.663 318.894 495.643 320.759C496.623 322.624 496.975 324.756 496.646 326.838C496.318 328.919 495.328 330.839 493.822 332.311C492.316 333.783 490.376 334.729 488.289 335.008C486.203 335.287 484.083 334.883 482.245 333.858C480.406 332.832 478.948 331.24 478.086 329.317L438.199 332.005L366.389 321.385Z" fill="#FFB6B6"/>
<path d="M332.126 310.992L335.362 297.588C335.362 297.588 352.938 294.349 366.833 297.448L419.107 307.494L414.876 339.135L332.126 310.992Z" fill="#57CDFF"/>
<path d="M210.793 421.364L240.038 357.745L261.381 312.735L279.891 323.643L222.269 428.364C222.775 430.231 222.717 432.206 222.102 434.04C221.487 435.874 220.342 437.484 218.813 438.667C217.285 439.849 215.44 440.552 213.512 440.684C211.585 440.817 209.662 440.375 207.985 439.413C206.309 438.451 204.955 437.013 204.095 435.281C203.235 433.548 202.907 431.6 203.153 429.681C203.399 427.762 204.208 425.959 205.477 424.501C206.746 423.042 208.419 421.993 210.283 421.487C210.452 421.441 210.622 421.399 210.793 421.363L210.793 421.364Z" fill="#FFB6B6"/>
<path d="M295.137 293.449L280.942 286.927C280.942 286.927 278.425 286.052 272.997 293.578C267.569 301.104 220.875 372.118 220.875 372.118L250.526 385.539L295.137 293.449Z" fill="#57CDFF"/>
<path d="M366.572 679.546L348.093 666.759V658.417L345.461 658.576L332.156 659.372L328.651 659.581L326.228 688.634L326.198 689.041H334.926L335.006 688.634L336.485 680.789L340.268 688.634L340.467 689.041H363.623C364.318 689.04 365.006 688.901 365.648 688.634C366.508 688.27 367.254 687.682 367.808 686.931C368.362 686.18 368.705 685.293 368.799 684.364C368.893 683.434 368.737 682.497 368.345 681.649C367.953 680.802 367.34 680.075 366.572 679.546H366.572Z" fill="#2F2E41"/>
<path d="M268.01 680.311L259.958 671.522L254.337 665.377L253.414 664.363L253.275 664.214L252.828 663.727L254.685 655.593L250.951 654.977L237.884 652.8L237.179 652.69L235.789 652.452L235.471 652.402L231.013 666.471L226.971 679.188L226.535 680.58L231.906 681.803L235.044 682.519L236.593 678.959L236.762 678.581L237.775 676.245V676.235L238.4 674.823L240.456 683.752L240.813 683.831L240.863 683.841L242.124 684.129L244.587 684.696L261.804 688.634L263.026 688.912C264.371 689.212 265.78 688.967 266.946 688.232C268.112 687.496 268.941 686.329 269.252 684.985C269.439 684.163 269.423 683.309 269.207 682.495C268.991 681.68 268.58 680.931 268.01 680.311V680.311Z" fill="#2F2E41"/>
<path d="M347.705 252.429C345.697 256.119 342.909 259.326 339.536 261.826C336.162 264.327 332.285 266.06 328.174 266.905C327.717 267.005 327.26 267.084 326.793 267.154C320.343 268.164 313.74 266.958 308.061 263.733C302.381 260.508 297.959 255.453 295.513 249.391C293.067 243.329 292.742 236.617 294.59 230.346C296.438 224.076 300.351 218.616 305.691 214.855C311.032 211.094 317.487 209.254 324.005 209.633C330.523 210.013 336.721 212.589 341.591 216.944C346.461 221.3 349.715 227.177 350.826 233.619C351.936 240.062 350.836 246.691 347.705 252.429V252.429Z" fill="#FFB6B6"/>
<path d="M336.207 213.124C326.744 206.608 318.411 205.615 311.566 207.463C310.679 206.089 309.434 204.983 307.966 204.263C302.628 190.793 286.381 182.704 272.439 186.636C258.406 190.594 248.723 206.159 251.364 220.516C253 229.415 258.593 237.121 260.843 245.885C265.198 262.85 254.574 282.284 237.956 287.753C253.691 290.916 271.011 281.292 276.656 266.248C279.398 258.941 279.563 250.963 279.912 243.165C280.004 237.783 280.662 232.425 281.877 227.181C282.479 224.828 283.331 222.546 284.417 220.375C286.783 215.601 290.712 211.784 295.549 209.56C295.116 210.902 295.007 212.327 295.233 213.719C295.458 215.11 296.011 216.428 296.845 217.564C293.155 222.193 291.146 227.199 291.146 230.196C283.48 244.226 294.443 256.277 308.454 263.952C314.042 267.03 320.495 268.157 326.793 267.154L327.38 264.648L328.174 266.905L330.825 274.472C333.883 275.954 336.915 277.578 339.921 279.344C338.779 273.975 337.855 268.616 337.219 263.376C336.34 256.244 339.407 245.627 341.62 239.17C342.992 235.19 343.696 231.011 343.704 226.801V226.617L345.858 233.547L353.703 230.196C352.243 221.814 353.703 212.299 336.207 213.124Z" fill="#2F2E41"/>
<path d="M275.937 405.423C276.968 401.338 276.968 397.06 275.937 392.975C274.161 386.75 277.713 384.083 277.713 384.083L278.601 288.05C282.353 284.293 292.404 284.232 298.028 284.524V280.295C298.028 278.738 298.645 277.244 299.745 276.143C300.845 275.042 302.336 274.423 303.892 274.423H329.896C331.451 274.423 332.943 275.042 334.043 276.143C335.142 277.244 335.76 278.738 335.76 280.295V285.364L343.387 285.485C356.669 286.475 368.29 299.609 368.29 299.609L356.746 344.069C356.746 344.069 360.298 380.526 364.738 384.972C369.178 389.418 367.402 392.085 367.402 392.085C367.402 392.085 364.738 401.867 370.066 405.423C375.394 408.98 371.842 415.205 371.842 415.205C371.842 415.205 275.937 416.983 273.273 414.315C270.609 411.648 275.937 405.423 275.937 405.423Z" fill="#57CDFF"/>
<path d="M452.641 689.817C452.642 689.972 452.612 690.126 452.552 690.27C452.493 690.414 452.406 690.545 452.296 690.655C452.187 690.764 452.056 690.852 451.912 690.911C451.769 690.97 451.615 691 451.46 691H173.143C172.83 691 172.529 690.875 172.308 690.653C172.086 690.432 171.962 690.131 171.962 689.817C171.962 689.503 172.086 689.202 172.308 688.98C172.529 688.758 172.83 688.634 173.143 688.634H451.46C451.615 688.633 451.769 688.663 451.912 688.723C452.056 688.782 452.187 688.869 452.296 688.979C452.406 689.089 452.493 689.22 452.552 689.363C452.612 689.507 452.642 689.661 452.641 689.817V689.817Z" fill="#CCCCCC"/>
</g>
<defs>
<clipPath id="clip0_272_222">
<rect width="584" height="691" fill="white"/>
</clipPath>
</defs>
</svg>
